<mxfile host="app.diagrams.net" modified="2023-10-11T15:20:40.872Z" agent="Mozilla/5.0 (Macintosh; Intel Mac OS X 10_15_7) AppleWebKit/537.36 (KHTML, like Gecko) Chrome/117.0.0.0 Safari/537.36" version="22.0.4" etag="n0YbrnUp7lustXhx_8rA" type="github">
  <diagram name="Page-1" id="sSNzzXCkGXSkU7V-dbca">
    <mxGraphModel>
      <root>
        <mxCell id="0" />
        <mxCell id="1" parent="0" />
      </root>
    </mxGraphModel>
  </diagram>
</mxfile>
